# xmcd
#
# Track frame offsets: 
#        150
#        9867
#        20385
#        30230
#        41572
#        52520
#        63020
#        75617
#        87482
#        98572
#        111382
#        122672
#        134215
#        145457
#        157577
#        169830
#        183257
#        193800
#        204742
#        217672
#        232382
#        245030
#        254370
#        264157
#        275265
#        287790
#        300830
#        310822
#        321255
#        330862
#        341735
#
# Disc length: 4695 seconds
#
# Revision: 0
# Processed by: cddbd v1.5.1PL2 Copyright (c) Steve Scherf et al.
# Submitted via: ExactAudioCopy v0.95a5
#
DISCID=a612551f
DTITLE=Jerry 'Boogie' McCain - The Jig's Up
DYEAR=1998
DGENRE=Blues
TTITLE0=My Next Door Neighbor
TTITLE1=Bad Credit
TTITLE2=Courtin' In A Cadillac
TTITLE3=The Jig's Up
TTITLE4=Run Uncle John! Run
TTITLE5=That's What They Want
TTITLE6=Things Ain't Right
TTITLE7=Trying To Please
TTITLE8=You Don't Love Me Any More
TTITLE9=If It Wasn't For My Baby
TTITLE10=Groom Without A Bride
TTITLE11=Listen! Young Girls
TTITLE12=Stay Out Of Automobiles
TTITLE13=Wine-O-Wine
TTITLE14=East Of The Sun
TTITLE15=Love To Make Up
TTITLE16=Crazy 'Bout That Mess
TTITLE17=Fall Guy
TTITLE18=Middle Of The Night
TTITLE19=It Must Be Love
TTITLE20=Geronimo Rock and Roll
TTITLE21=A Cutie Named Judie
TTITLE22=I Want Somebody To Love
TTITLE23=I'm A Ding Dong Daddy From A Rock and Roll City
TTITLE24=Turn Your Damper Down
TTITLE25=Rock and Roll Ball
TTITLE26=My Next Door Neighbor
TTITLE27=What About You
TTITLE28=Tuff Stuff
TTITLE29=She's Tough
TTITLE30=Red Top
EXTD=
EXTT0=
EXTT1=
EXTT2=
EXTT3=
EXTT4=
EXTT5=
EXTT6=
EXTT7=
EXTT8=
EXTT9=
EXTT10=
EXTT11=
EXTT12=
EXTT13=
EXTT14=
EXTT15=
EXTT16=
EXTT17=
EXTT18=
EXTT19=
EXTT20=
EXTT21=
EXTT22=
EXTT23=
EXTT24=
EXTT25=
EXTT26=
EXTT27=
EXTT28=
EXTT29=
EXTT30=
PLAYORDER=
